PathFileType	4	(X/Y/Z)	c:/Users/goper/Files/vsCode/490R/osim_files/C11/C11_Static01.trc
DataRate	CameraRate	NumFrames	NumMarkers	Units                	OrigDataRate	OrigDataStartFrame	OrigNumFrames
120.00	120.00	10	36	mm	120.0	681	1089
                Frame#	Time	LPSI			LASI			LTH1			LTH2			LTH3			LTH4			LLFE			LMFE			LSH1			LSH2			LSH3			LSH4			LLMA			LMMA			LCAL			LMTP			LTOE			LMTP			RPSI			RASI			RTH1			RTH2			RTH3			RTH4			RLFE			RMFE			RSH1			RSH2			RSH3			RSH4			RLMA			RMMA			RCAL			RMTP			RTOE			RMTP		
		X1	Y1	Z1	X2	Y2	Z2	X3	Y3	Z3	X4	Y4	Z4	X5	Y5	Z5	X6	Y6	Z6	X7	Y7	Z7	X8	Y8	Z8	X9	Y9	Z9	X10	Y10	Z10	X11	Y11	Z11	X12	Y12	Z12	X13	Y13	Z13	X14	Y14	Z14	X15	Y15	Z15	X16	Y16	Z16	X17	Y17	Z17	X18	Y18	Z18	X19	Y19	Z19	X20	Y20	Z20	X21	Y21	Z21	X22	Y22	Z22	X23	Y23	Z23	X24	Y24	Z24	X25	Y25	Z25	X26	Y26	Z26	X27	Y27	Z27	X28	Y28	Z28	X29	Y29	Z29	X30	Y30	Z30	X31	Y31	Z31	X32	Y32	Z32	X33	Y33	Z33	X34	Y34	Z34	X35	Y35	Z35	X36	Y36	Z36

681	5.66667	-373.97644	1018.16113	478.21152	-200.26077	1008.33575	401.29749	-320.31503	644.61969	312.27164	-317.16815	597.11243	309.60715	-259.69952	643.72009	307.96310	-265.62744	597.22626	309.28308	-316.46585	516.31805	304.50745	-296.55298	501.71988	413.33588	-376.12561	414.16025	290.46606	-376.75217	369.44766	286.33813	-315.36844	409.85495	279.03748	-324.00119	365.76379	276.53687	-352.98334	97.01469	311.25476	-315.17953	110.35435	402.57495	-405.16910	58.81051	370.17737	-244.11130	40.25100	268.38403	-165.78836	57.64462	330.06168	-201.98410	45.65551	379.57568	-366.09186	1031.41602	561.88361	-199.18031	1001.16022	632.24927	-299.78714	632.33527	706.21967	-295.43280	588.43439	706.07892	-237.49426	630.68781	697.87610	-243.17203	588.12408	700.41254	-277.13132	520.58887	699.27759	-303.77579	488.05478	590.09912	-346.86038	414.97778	727.80365	-342.10580	368.97150	730.61322	-285.19891	413.03094	722.13385	-289.15195	366.15668	727.76227	-326.86969	98.53010	711.59283	-298.63840	105.37490	617.55853	-387.60104	58.84774	664.38330	-171.43900	48.93372	643.10638	-168.16000	61.74464	692.59778	-209.31810	38.89136	753.79254
682	5.67500	-373.97229	1018.21008	478.20956	-200.27072	1008.26581	401.30219	-320.31186	644.60645	312.26596	-317.19269	597.11237	309.59109	-259.71658	643.68866	307.96146	-265.69626	597.17126	309.28229	-316.47641	516.32782	304.48904	-296.52414	501.69165	413.34955	-376.53598	414.04135	290.66162	-376.77817	369.45853	286.32452	-315.35971	409.85101	279.03317	-323.99091	365.76135	276.54355	-352.95587	97.01638	311.24045	-315.11514	110.31788	402.57965	-405.22552	58.87275	370.13763	-243.95674	40.37656	268.29010	-165.76903	57.59251	330.08521	-201.97539	45.59339	379.60825	-365.96420	1031.36365	561.90802	-199.16885	1001.06683	632.28058	-299.72437	632.30469	706.24548	-295.38226	588.41162	706.10663	-237.49821	630.62982	697.88934	-243.16264	588.04565	700.44489	-277.10638	520.49664	699.30634	-303.75351	488.04544	590.08551	-346.78256	414.92865	727.83002	-342.00607	368.94077	730.64423	-285.20041	412.93884	722.14886	-289.14923	366.10681	727.79321	-326.74567	98.47815	711.61658	-298.57959	105.37886	617.55554	-387.52441	58.81961	664.39130	-171.44481	48.84949	643.15692	-168.14183	61.68378	692.62622	-209.28096	38.86394	753.80042
683	5.68333	-373.97189	1018.20636	478.21735	-200.28821	1008.20673	401.28436	-320.35226	644.57324	312.25943	-317.21487	597.07629	309.58417	-259.75809	643.65576	307.96060	-265.74347	597.13898	309.27713	-316.51724	516.28992	304.47867	-296.56934	501.68439	413.33197	-376.15393	414.14703	290.43649	-376.80170	369.42917	286.30789	-315.38950	409.82318	279.03369	-324.04376	365.73300	276.53070	-352.97699	96.98578	311.24341	-315.12128	110.28188	402.57040	-405.19797	58.85522	370.15210	-243.97954	40.33128	268.29410	-165.78647	57.54128	330.06931	-201.98950	45.55216	379.61169	-365.95407	1031.36414	561.94458	-199.18849	1001.02325	632.28510	-299.73859	632.28259	706.27094	-295.40540	588.38995	706.13281	-237.55513	630.58655	697.89948	-243.20508	588.01770	700.45764	-277.16660	520.46088	699.33093	-303.78159	488.02341	590.09851	-346.80829	414.90775	727.82611	-342.03394	368.91290	730.66583	-285.30521	412.85544	722.17114	-289.19269	366.08087	727.78931	-326.76074	98.47871	711.66254	-298.61047	105.34627	617.54718	-387.52130	58.79360	664.40973	-171.46083	48.81012	643.15833	-168.17798	61.65296	692.63525	-209.30257	38.82494	753.80597
684	5.69167	-373.98013	1018.19867	478.25842	-200.29848	1008.19391	401.27057	-320.40280	644.54883	312.27011	-317.27057	597.04645	309.61194	-259.79608	643.65796	307.97147	-265.83401	597.11121	309.28677	-316.56873	516.24634	304.49527	-296.66486	501.66858	413.34207	-376.57047	413.98807	290.62598	-376.82434	369.40558	286.31296	-315.44269	409.81149	279.00201	-324.07993	365.72946	276.52930	-352.98514	96.96348	311.24274	-315.16757	110.29515	402.57394	-405.20554	58.83971	370.16287	-244.10156	40.21597	268.36899	-165.80687	57.55188	330.05341	-202.03198	45.55988	379.58362	-365.99725	1031.38916	561.96191	-199.18834	1001.02405	632.27698	-299.80920	632.28448	706.27875	-295.44836	588.38599	706.13031	-237.60501	630.59406	697.89124	-243.25471	588.03003	700.45465	-277.21863	520.49127	699.33331	-303.81647	488.00821	590.10651	-346.86035	414.91611	727.84302	-342.10242	368.95270	730.65674	-285.35562	412.87103	722.13751	-289.21555	366.08615	727.79169	-326.84326	98.52596	711.64081	-298.63742	105.33759	617.54028	-387.55356	58.75400	664.39825	-171.47340	48.81841	643.14252	-168.23010	61.63651	692.60840	-209.32726	38.82530	753.80316
685	5.70000	-373.94336	1018.21350	478.29971	-200.24898	1008.17877	401.26968	-320.45636	644.56482	312.29382	-317.32040	597.07733	309.65399	-259.82230	643.65637	307.98862	-265.87268	597.10822	309.29477	-316.58163	516.25653	304.50027	-296.65216	501.63910	413.36008	-376.22119	414.14191	290.46463	-376.87073	369.42038	286.33908	-315.46442	409.81946	279.04233	-324.10590	365.73596	276.55338	-352.99130	96.96801	311.25305	-315.13638	110.31994	402.56976	-405.21451	58.86945	370.19125	-244.09326	40.23056	268.39026	-165.79198	57.56245	330.06583	-201.97704	45.58353	379.56638	-365.94226	1031.43201	561.97455	-199.12460	1001.03607	632.25543	-299.77399	632.28632	706.28735	-295.43399	588.38721	706.13568	-237.54907	630.59827	697.89178	-243.22922	588.03864	700.43921	-277.16138	520.49890	699.33331	-303.80255	488.04419	590.14319	-346.80896	414.92545	727.88708	-342.06085	368.96625	730.68323	-285.27246	412.92892	722.15582	-289.18777	366.10849	727.78662	-326.78571	98.52926	711.64624	-298.61356	105.34623	617.56183	-387.52420	58.78337	664.40363	-171.44878	48.84903	643.14423	-168.18069	61.64846	692.60754	-209.28938	38.84900	753.79974
686	5.70833	-373.90466	1018.21466	478.34268	-200.23233	1008.16064	401.29279	-320.46872	644.59070	312.32770	-317.36255	597.10486	309.68219	-259.82080	643.66681	308.00867	-265.86707	597.14655	309.30426	-316.60013	516.29224	304.53015	-296.63904	501.56363	413.37366	-376.27811	414.15439	290.49905	-376.90283	369.44217	286.37830	-315.46307	409.83887	279.05566	-324.10184	365.74115	276.56744	-353.00058	96.98818	311.26965	-315.11633	110.32435	402.57260	-405.17163	58.83755	370.24707	-244.08977	40.22289	268.40988	-165.75238	57.61603	330.07605	-201.93813	45.61314	379.57126	-365.08960	1031.12573	562.00995	-199.06464	1001.05554	632.25439	-299.75092	632.27924	706.29651	-295.42789	588.38049	706.14038	-237.49602	630.62482	697.90302	-243.20676	588.05530	700.44525	-277.12802	520.51086	699.33636	-303.82297	488.06204	590.16229	-346.78250	414.92999	727.90601	-342.07925	368.96014	730.67285	-285.21616	412.99570	722.15771	-289.16898	366.12991	727.80017	-326.80060	98.52889	711.65546	-298.57596	105.35989	617.58411	-387.53821	58.80545	664.41553	-171.39729	48.89907	643.13489	-168.15044	61.66071	692.61420	-209.26407	38.84488	753.80194
687	5.71667	-373.88977	1018.23785	478.34909	-200.24524	1008.14630	401.29056	-320.52646	644.61823	312.34576	-317.41562	597.11652	309.69659	-259.86096	643.66937	308.01505	-265.88654	597.15210	309.31635	-316.64813	516.29407	304.54001	-296.65820	501.54315	413.37115	-376.34732	414.16907	290.51620	-376.96088	369.47662	286.38437	-315.46140	409.85547	279.07022	-324.12445	365.77753	276.57126	-352.98495	96.99716	311.27252	-315.09915	110.34286	402.53796	-405.16818	58.83671	370.23990	-244.05095	40.22308	268.40039	-165.73090	57.65493	330.04471	-201.91739	45.65329	379.54205	-365.89581	1031.54675	561.94855	-199.01724	1001.08722	632.22882	-299.74332	632.30725	706.28424	-295.39346	588.39325	706.12244	-237.47301	630.66864	697.86792	-243.18802	588.06769	700.43402	-277.15134	520.51233	699.30316	-303.84033	488.05850	590.16901	-346.78418	414.94952	727.88177	-342.07947	368.97705	730.64948	-285.14209	413.04144	722.11969	-289.13525	366.15106	727.76819	-326.76736	98.53044	711.61469	-298.57693	105.36073	617.59662	-387.58237	58.90376	664.41418	-171.36502	48.94517	643.10107	-168.09763	61.72332	692.58008	-209.24556	38.85868	753.78357
688	5.72500	-373.88791	1018.25299	478.33182	-200.25580	1008.14563	401.27240	-320.56912	644.60236	312.32141	-317.47672	597.09833	309.67740	-259.92038	643.65387	307.99295	-265.96896	597.12811	309.30637	-316.68869	516.27301	304.52173	-296.70108	501.53912	413.35092	-376.82440	414.01276	290.71536	-377.00211	369.47971	286.36517	-315.53635	409.83020	279.05637	-324.17999	365.76627	276.57379	-352.98846	96.96356	311.25473	-315.10468	110.31167	402.53488	-405.21045	58.84316	370.20319	-243.94850	40.38610	268.24008	-165.70183	57.63164	330.03738	-201.91393	45.63669	379.53299	-365.03030	1031.13855	562.01123	-199.00594	1001.07922	632.20392	-299.72021	632.28821	706.28479	-295.39880	588.38507	706.12720	-237.49261	630.62604	697.87531	-243.18062	588.06726	700.42609	-277.09140	520.51569	699.30353	-303.86200	488.03372	590.16895	-346.77753	414.89600	727.88293	-342.06998	368.94550	730.64758	-285.18198	412.99319	722.12152	-289.13586	366.13248	727.77356	-326.77017	98.52465	711.58661	-298.58704	105.35406	617.58234	-387.53912	58.85337	664.38446	-171.39392	48.89752	643.11639	-168.07646	61.70515	692.57373	-209.24522	38.84351	753.77527
689	5.73333	-373.87799	1018.25250	478.34076	-200.26811	1008.12677	401.25504	-320.62076	644.57159	312.31406	-317.51788	597.07904	309.68829	-259.98187	643.63647	307.97937	-266.04974	597.09296	309.29437	-316.74356	516.24054	304.51447	-296.64359	501.58694	413.39780	-376.82867	414.01089	290.69931	-377.03793	369.46228	286.34290	-315.56927	409.80859	279.03699	-324.22446	365.74182	276.56372	-353.02414	96.92522	311.25403	-315.13742	110.27633	402.55182	-405.22812	58.81387	370.16534	-244.11359	40.16684	268.37180	-165.76080	57.55994	330.06146	-201.98613	45.56497	379.57312	-365.00964	1031.13330	562.01959	-199.02338	1001.03540	632.23950	-299.75046	632.24060	706.31018	-295.42285	588.34570	706.14667	-237.55109	630.57849	697.89148	-243.25060	588.01477	700.46924	-277.12769	520.49475	699.36597	-303.87952	487.99133	590.16333	-346.79608	414.85828	727.89270	-342.08862	368.91278	730.67743	-285.28629	412.87848	722.18188	-289.15826	366.10773	727.81049	-326.80304	98.48720	711.61884	-298.62848	105.31956	617.57111	-387.56235	58.77240	664.39514	-171.43642	48.81045	643.17468	-168.12727	61.66837	692.61804	-209.28726	38.81338	753.79834
690	5.74167	-373.87695	1018.25714	478.35620	-200.28076	1008.09839	401.26208	-320.64798	644.54907	312.33484	-317.52371	597.05847	309.70828	-260.00513	643.59991	307.98605	-266.05124	597.08142	309.30432	-316.77982	516.20807	304.53146	-296.67273	501.57495	413.36813	-376.84573	413.99777	290.71756	-377.05499	369.43048	286.37155	-315.60428	409.77109	279.05658	-324.25613	365.71713	276.58173	-353.02200	96.89971	311.26608	-315.16452	110.24493	402.56992	-405.29333	58.81422	370.14499	-244.13010	40.13934	268.37524	-165.76816	57.52243	330.06277	-201.97615	45.54626	379.58731	-364.97409	1031.12219	562.04926	-199.02626	1001.00732	632.24878	-299.75241	632.21130	706.31671	-295.41541	588.31702	706.16693	-237.54173	630.57062	697.92169	-243.23961	587.99902	700.48816	-277.14890	520.44214	699.36768	-303.86621	487.98517	590.17987	-346.83002	414.82266	727.89136	-342.08862	368.89319	730.70526	-285.27200	412.87082	722.20087	-289.17529	366.08463	727.82867	-326.82590	98.45841	711.62360	-298.65698	105.28587	617.58850	-387.57111	58.74289	664.39380	-171.44679	48.77866	643.18359	-168.15784	61.63469	692.62952	-209.29776	38.79371	753.79572
